<svg xmlns="http://www.w3.org/2000/svg" viewBox="0 0 175.94 51.05"><title>EdwardWardDraws_logo_only</title><path d="M104,25.79c.18.45.62.82.14,1.4a4.16,4.16,0,0,0-2.49.43c-.26.42-.69.82-.68,1.21a12.41,12.41,0,0,1-.15,1.26c0,.47,0,1,0,1.43s0,.86,0,1.22a1,1,0,0,1-1.36,0c-.12-2.16.48-4.25.75-6.43l.62-.59A4,4,0,0,1,104,25.79Z" fill="#fff"/><path d="M76,18.39l.52-.92a1.27,1.27,0,0,1,.49.07,1.93,1.93,0,0,1,.62.58c.61,1.25,1.43,2.39,1.32,3.92a16.91,16.91,0,0,0,.29,3c0,.35.08.71.13,1.19.75-.58.58-1.43.87-2.07l1-2.26c.78,1.07,2.18,1.29,2.18,2.73,1.17,1.26,1.39,2.89,1.75,4.48a9,9,0,0,0,.59,1.43c.82-.19,1-.86,1.28-1.47.51-1.12,1-2.25,1.52-3.38a4.64,4.64,0,0,0,.11-.65,20.13,20.13,0,0,1,1.73-4.93l1.29.54A7.78,7.78,0,0,1,91,23.46a27.57,27.57,0,0,1-1.18,2.74,15.85,15.85,0,0,1-1.14,2.49,26.4,26.4,0,0,0-1.11,2.73c-.43.8-1.09,1.47-1.52,2.4l-1.16-.42c-1-2.61-1.26-5.41-2.87-7.91a8,8,0,0,0-.5.85,33.18,33.18,0,0,0-1,3.41,7.61,7.61,0,0,1-1.1,1.88,1.09,1.09,0,0,1-1.36-.75,4.84,4.84,0,0,1-.31-1.26,35.82,35.82,0,0,1-.3-3.73A19.38,19.38,0,0,0,76,18.39Z" fill="#fff"/><path d="M19.56,17.49l.7.14,0-.36,1.3-.21.61.44a2.45,2.45,0,0,1,2.18-.44,3.12,3.12,0,0,0,1.51-.23,1.65,1.65,0,0,1,1.64.26l-.31,1.36c-2.13.51-4.33.36-6.55.69a17.29,17.29,0,0,0-.83,2.59c-.15.91-.36,1.95.59,2.54a12.47,12.47,0,0,1,1.71-.48,14.23,14.23,0,0,1,2.44-.09,4.41,4.41,0,0,1,1.17.34c.21,1.3,0,1.53-1.17,1.64s-2.44.23-3.66.38a7.87,7.87,0,0,0-1.11.3,12,12,0,0,0-.32,4.09l1,.81.23-.29a8.78,8.78,0,0,0,4.81.16l.85,1.12-.5,1-7-.62-.61.67-.81-.69c.09-.57.18-1.15.28-1.73a22.33,22.33,0,0,0,.51-4.24,8.94,8.94,0,0,1,.18-2.12,5.36,5.36,0,0,0,.09-1.75,6.44,6.44,0,0,1,.22-2C19,19.7,19.27,18.64,19.56,17.49Z" fill="#fff"/><path d="M31.09,26.3l2.07-.2,1.37.65a4.94,4.94,0,0,0,.27-1.16,16.21,16.21,0,0,1,.58-4.54,3.71,3.71,0,0,0,0-.95l.31-.24a2.18,2.18,0,0,1,1.07,1.87,8.25,8.25,0,0,1-.19,2.53,7.14,7.14,0,0,0-.18,2.08,10.12,10.12,0,0,0,.22,2.74c.17.46.28.94.42,1.42l.86.93-1.21,1.36c-1-1.06-1.14-2.48-1.71-3.78a1.79,1.79,0,0,0-.84.79c-.48.77-.94,1.56-1.4,2.33-.33.14-.61.28-.9.39s-.53.17-.82.26a3.17,3.17,0,0,1-2-2,4,4,0,0,1,1.09-3.68Zm1.61,1.25c-1.66.09-2.55,1.19-2.38,3.05l1.18.88a6.34,6.34,0,0,0,2-2.91Z" fill="#fff"/><path d="M67.42,30.68c-.21,0-.32,0-.36,0-.7.81-1.36,1.65-2.09,2.43a17.82,17.82,0,0,1-1.42,1.28H62.31c-.67-.51-.55-1.27-.81-1.87l1.08-3.08,2.14-2c.33-.16.7.37,1.17.65l-.2.75c-1.39.43-1.82,1.72-2.4,2.9a.86.86,0,0,0,0,1l1-.41c0-.11.06-.36.19-.47a16.71,16.71,0,0,0,2.39-3.22,3.77,3.77,0,0,0,.64-2.13c.06-1.33.3-2.66.48-4.1l-.62-.51,1.27-.49.88.47v2.17l-.39.59.25.85c-.63,1.49-.37,3.14-.54,4.66l1,3.54a2.16,2.16,0,0,1-1.78-1.08A2.9,2.9,0,0,1,67.42,30.68Z" fill="#fff"/><path d="M45.42,33.26A4.42,4.42,0,0,1,44,31.91a1.31,1.31,0,0,0-1.3-.55,29.11,29.11,0,0,1-1.86,2.56,1.57,1.57,0,0,1-1.73.61A1.78,1.78,0,0,1,38.44,33,8.24,8.24,0,0,1,39,28.74l-.09-1.08.9-.43.68.64c-.21.83.09,1.81-.48,2.58L40.16,32c.86.08,1-.65,1.23-1.09A6,6,0,0,1,42.65,29c1.49.12,1.8,1.56,2.7,2.36a.89.89,0,0,0,.95-.71c.36-1.08,1.09-2,1-3.26a1,1,0,0,1,.74-.94l.8.24C49,28.84,47.1,32.4,45.42,33.26Z" fill="#fff"/><path d="M54.68,28.42l-.56,3,.09,1.36.6.7c.41-.25.78-.62,1.3-.28a2.3,2.3,0,0,1-1,1.46c-1.09.32-1.39-.65-2-1.22L53,32.34c-.2,0-.39-.06-.48,0a10.58,10.58,0,0,0-1.06.95,1.85,1.85,0,0,1-1.83.62,3.09,3.09,0,0,1-1.12-1.35,2.09,2.09,0,0,1,.12-2.26,5.45,5.45,0,0,0,.71-1.85l1.62-1.41-.1-.12,1.75-.59A3.47,3.47,0,0,1,54.68,28.42Zm-2.45-.13a3.36,3.36,0,0,0-2.25,2,14.64,14.64,0,0,0-.26,1.83l1,.17A7.06,7.06,0,0,0,53,29Z" fill="#fff"/><path d="M57.79,29.9,57,32l-.84.32c-.31-.86.06-1.62,0-2.34a12.17,12.17,0,0,1,2.44-3.32l.31.25a2.34,2.34,0,0,1,1.49-1,6,6,0,0,1,1.45.55,6.77,6.77,0,0,1,1.06,1.13l-.27.55-1.34-.57-1.07.24Z" fill="#fff"/><path d="M151.61,26.46c1.2.72,1.76.6,2.5-.32a2.67,2.67,0,0,1,.91-.73c.68-.32,1.4-.56,2.11-.82.43-.16.88-.29,1.47-.48a1,1,0,0,1,.89.8c.13.45.22.95-.32,1.27-.32-.14-.63-.3-.95-.42-.1,0-.23,0-.3,0l-2.62,1.91c.39.79,1.15,1,1.73,1.53.11.65.63,1.27.28,2s-.59,1.38-.84,2l-1,.68a1.87,1.87,0,0,1-.67-2l.87-.43.07-1.22c-1-.58-1.54-1.67-2.64-2.22a6.86,6.86,0,0,0-.92,1.46c-.52,1.67-1.8,2.64-3.18,3.7l-1.18-.35-.78-1.32c-.81,0-1.18.76-2,.86l-.56-.29a7.48,7.48,0,0,1-.15-3.61,12.3,12.3,0,0,0,.14-2l.9-.57.7.63c-.07,1-.57,2,0,3.07a5.83,5.83,0,0,0,1-1.79c.68.36,1.29.77,1.35,1.5s.43,1.21.47,1.9A2.38,2.38,0,0,0,150.48,30a5.43,5.43,0,0,0,.73-2.25A6.63,6.63,0,0,1,151.61,26.46Z" fill="#fff"/><path d="M126.15,21.08h.46a5.47,5.47,0,0,0,1.94,2.22c.27.7.48,1.34.77,1.95.17.35.2.6-.11.85l.27.26A7,7,0,0,1,126.27,31a18.31,18.31,0,0,1-4.6,2.29,1.36,1.36,0,0,1-1.83-.68,4.79,4.79,0,0,0,.69-2.26,19,19,0,0,1,1.07-5c0-.07.12-.1.15-.13-.17-1.25.48-2.32.61-3.48s.17-2.28.24-3.39l.84-.44.23.53.47,0A8.27,8.27,0,0,1,126.15,21.08Zm-3,1.65c.11.24.28.42.25.58-.09.58-.26,1.15-.37,1.73-.16.84-.3,1.69-.43,2.54,0,.1.06.22.11.37l.4.2.45.18a3.12,3.12,0,0,0-1.45,2.06l1.9.54c2.09-1,3.82-2.43,4.33-4.86a4.23,4.23,0,0,0-1.47-2.18,2.7,2.7,0,0,1-.45-.55l-2-2.45-.57.28Z" fill="#fff"/><path d="M141.63,30.73l.73.58-.56.86h-1c-.94-.26-.45-1.47-1.34-1.78-1.14.79-2,2.12-3.73,2.08l-1.19-1.63.83-1.81-.06-.36A4.81,4.81,0,0,1,138.09,26l.82.26.65.83c-.09.11-.2.37-.33.37-1.88.06-2.16,1.69-2.95,2.86l.36.45,1-.28.22-.17a6.28,6.28,0,0,0,2.55-5.17l.56-.53,1.06.91c0,.35.25.84-.25,1.21-.13.94-.31,1.88-.38,2.83A4.24,4.24,0,0,0,141.63,30.73Z" fill="#fff"/><path d="M129.42,31.5l.23-1.77c0-.11,0-.26,0-.33.29-.36.42-.82.79-1.11-.18-.59.37-.79.6-1.16a3.87,3.87,0,0,0,.28-.87l.77-.61.47.05.14-.7a2.11,2.11,0,0,1,2.16-.74,2.36,2.36,0,0,1,.88,2c-.67.53-.9-.19-1.3-.29a2.39,2.39,0,0,0-1.76,1.12,7,7,0,0,1-.86.95c-.19.51-.33,1.05-1,1.16l.31.46-.88,2.28Z" fill="#fff"/><path d="M106.45,29.5,106,31.59a.77.77,0,0,0,1-.11,12.1,12.1,0,0,0,2.86-3.31,3.67,3.67,0,0,0,.42-1.35,15.06,15.06,0,0,1,.49-2.31c.36-1.26.76-2.51,1.18-3.74a11.1,11.1,0,0,1,.72-1.4l1,1.36a5.83,5.83,0,0,1-.19,2.77c-.1.22,0,.53,0,.85l-.38.16a12.4,12.4,0,0,1-.86,2.06,5.09,5.09,0,0,0-.84,3.26c.09,1.05.31,2.08.46,3.06L113.34,34l-.24.68A2.89,2.89,0,0,1,111,33.11a17.08,17.08,0,0,1-1.07-2.61c-.63.7-1.48,1.05-2,1.85s-1.25.79-1.82,1.24a2.26,2.26,0,0,1-1.54-.93,5.11,5.11,0,0,1,.79-3.77,1.92,1.92,0,0,0,.27-.66,2.09,2.09,0,0,1,1.08-1.35c.42-.24.67-.86,1.39-.63l.6.76-.09.77C107.54,27.86,107.25,29,106.45,29.5Z" fill="#fff"/><path d="M96.55,27.43l-1.18,4.85c.4.68,1.12.15,1.58.58-.2.7-.92.79-1.39,1.22-1.42-.54-1.11-1.94-1.51-3.09a10.36,10.36,0,0,0-1.26,1,3.44,3.44,0,0,1-2,1.07l-1-.87a4.9,4.9,0,0,1,.85-3.08,19.5,19.5,0,0,1,1.45-2,8.74,8.74,0,0,0,.55-1l1.26-.33,2,.88Zm-1.78.26-.52-.64a10,10,0,0,0-1.89,1.84,5.64,5.64,0,0,0-1.1,2.25A3.37,3.37,0,0,0,93,30C93.6,29.25,94.17,28.49,94.77,27.69Z" fill="#fff"/></svg>